<svg width="600" height="600" viewBox="0 0 600 600" fill="none" xmlns="http://www.w3.org/2000/svg">
<rect width="600" height="600" fill="white"/>
<g clip-path="url(#clip0_5_56)">
<path d="M300.15 457C394.591 457 471.15 380.441 471.15 286C471.15 191.559 394.591 115 300.15 115C205.709 115 129.15 191.559 129.15 286C129.15 380.441 205.709 457 300.15 457Z" fill="white" stroke="black" stroke-width="20" stroke-miterlimit="10"/>
<path d="M499 239.11H101.29C97.3118 239.11 93.4964 240.69 90.6834 243.503C87.8704 246.316 86.29 250.132 86.29 254.11V269.41C86.12 273 86 276.52 86 280.11C86 398.3 181.81 494.11 300 494.11C416.4 494.11 511.1 401.17 513.93 285.44C513.93 285 514 284.56 514 284.11V254.11C514 250.132 512.42 246.316 509.607 243.503C506.794 240.69 502.978 239.11 499 239.11Z" fill="black"/>
</g>
<defs>
<clipPath id="clip0_5_56">
<rect width="428" height="389.11" fill="white" transform="translate(86 105)"/>
</clipPath>
</defs>
</svg>
